HIERARCHY
ROOT Hips
{
	OFFSET 0.000000 100.481300 0.000000
	CHANNELS 6 Xposition Yposition Zposition Xrotation Yrotation Zrotation 
	JOINT Spine
	{
		OFFSET -0.279200 12.230698 -2.892100
		CHANNELS 3 Xrotation Yrotation Zrotation
		JOINT Spine1
		{
			OFFSET -0.232667 10.192268 -1.242267
			CHANNELS 3 Xrotation Yrotation Zrotation
			JOINT Spine1_split
			{
				OFFSET -0.232667 10.192268 -1.242267
				CHANNELS 3 Xrotation Yrotation Zrotation
				JOINT Spine2
				{
					OFFSET -0.232667 10.192268 -1.242267
					CHANNELS 3 Xrotation Yrotation Zrotation
					JOINT Neck
					{
						OFFSET -0.418800 17.814194 8.416900
						CHANNELS 3 Xrotation Yrotation Zrotation
						JOINT Head
						{
							OFFSET 0.000000 7.031097 3.806800
							CHANNELS 3 Xrotation Yrotation Zrotation
							JOINT HeadTop_End
							{
								OFFSET 0.000000 24.646606 12.978600
								CHANNELS 3 Xrotation Yrotation Zrotation
								End Site
								{
									OFFSET 0.000000 0.000000 0.000000
								}
							}
						}
					}
					JOINT LeftShoulder
					{
						OFFSET 8.476499 7.247704 -3.868750
						CHANNELS 3 Xrotation Yrotation Zrotation
						JOINT LeftShoulder_split
						{
							OFFSET 8.476499 7.247704 -3.868750
							CHANNELS 3 Xrotation Yrotation Zrotation
							JOINT LeftArm
							{
								OFFSET 9.308998 -2.777710 0.208600
								CHANNELS 3 Xrotation Yrotation Zrotation
								JOINT LeftForeArm
								{
									OFFSET 29.972298 0.000000 0.000000
									CHANNELS 3 Xrotation Yrotation Zrotation
									JOINT LeftHand
									{
										OFFSET 26.026505 0.000000 0.000000
										CHANNELS 3 Xrotation Yrotation Zrotation
										JOINT LeftHandThumb1
										{
											OFFSET 12.240501 -7.147949 9.207150
											CHANNELS 3 Xrotation Yrotation Zrotation
											JOINT LeftHandThumb2
											{
												OFFSET 4.138618 -2.389435 2.389433
												CHANNELS 3 Xrotation Yrotation Zrotation
												JOINT LeftHandThumb3
												{
													OFFSET 2.726913 -1.574387 1.574386
													CHANNELS 3 Xrotation Yrotation Zrotation
													JOINT LeftHandThumb4
													{
														OFFSET 3.941010 -2.275345 2.275342
														CHANNELS 3 Xrotation Yrotation Zrotation
														End Site
														{
															OFFSET 0.000000 0.000000 0.000000
														}
													}
												}
											}
										}
										JOINT LeftHandIndex1
										{
											OFFSET 24.424698 -1.985611 5.953459
											CHANNELS 3 Xrotation Yrotation Zrotation
											JOINT LeftHandIndex2
											{
												OFFSET 6.426697 0.000000 0.000000
												CHANNELS 3 Xrotation Yrotation Zrotation
												JOINT LeftHandIndex3
												{
													OFFSET 5.337898 0.000000 0.000000
													CHANNELS 3 Xrotation Yrotation Zrotation
													JOINT LeftHandIndex4
													{
														OFFSET 4.409401 0.000000 0.000000
														CHANNELS 3 Xrotation Yrotation Zrotation
														End Site
														{
															OFFSET 0.000000 0.000000 0.000000
														}
													}
												}
											}
										}
										JOINT LeftHandMiddle1
										{
											OFFSET 23.810104 0.000000 0.000000
											CHANNELS 3 Xrotation Yrotation Zrotation
											JOINT LeftHandMiddle2
											{
												OFFSET 7.176498 0.000000 0.000000
												CHANNELS 3 Xrotation Yrotation Zrotation
												JOINT LeftHandMiddle3
												{
													OFFSET 6.774902 0.000000 0.000000
													CHANNELS 3 Xrotation Yrotation Zrotation
													JOINT LeftHandMiddle4
													{
														OFFSET 5.403328 0.000000 0.000000
														CHANNELS 3 Xrotation Yrotation Zrotation
														End Site
														{
															OFFSET 0.000000 0.000000 0.000000
														}
													}
												}
											}
										}
										JOINT LeftHandRing1
										{
											OFFSET 22.908401 -0.839279 -6.020567
											CHANNELS 3 Xrotation Yrotation Zrotation
											JOINT LeftHandRing2
											{
												OFFSET 6.337502 0.000000 0.000000
												CHANNELS 3 Xrotation Yrotation Zrotation
												JOINT LeftHandRing3
												{
													OFFSET 5.779297 0.000000 0.000000
													CHANNELS 3 Xrotation Yrotation Zrotation
													JOINT LeftHandRing4
													{
														OFFSET 4.965698 0.000000 0.000000
														CHANNELS 3 Xrotation Yrotation Zrotation
														End Site
														{
															OFFSET 0.000000 0.000000 0.000000
														}
													}
												}
											}
										}
										JOINT LeftHandPinky1
										{
											OFFSET 20.037003 -1.530319 -10.950146
											CHANNELS 3 Xrotation Yrotation Zrotation
											JOINT LeftHandPinky2
											{
												OFFSET 5.254700 0.000000 0.000000
												CHANNELS 3 Xrotation Yrotation Zrotation
												JOINT LeftHandPinky3
												{
													OFFSET 4.810204 0.000000 0.000000
													CHANNELS 3 Xrotation Yrotation Zrotation
													JOINT LeftHandPinky4
													{
														OFFSET 3.647202 0.000000 0.000000
														CHANNELS 3 Xrotation Yrotation Zrotation
														End Site
														{
															OFFSET 0.000000 0.000000 0.000000
														}
													}
												}
											}
										}
									}
								}
							}
						}
					}
					JOINT RightShoulder
					{
						OFFSET -7.570500 7.247704 -3.868750
						CHANNELS 3 Xrotation Yrotation Zrotation
						JOINT RightShoulder_split
						{
							OFFSET -7.570500 7.247704 -3.868750
							CHANNELS 3 Xrotation Yrotation Zrotation
							JOINT RightArm
							{
								OFFSET -9.308998 -2.777710 0.208500
								CHANNELS 3 Xrotation Yrotation Zrotation
								JOINT RightForeArm
								{
									OFFSET -29.972300 0.000000 0.000000
									CHANNELS 3 Xrotation Yrotation Zrotation
									JOINT RightHand
									{
										OFFSET -26.026505 0.000000 0.000000
										CHANNELS 3 Xrotation Yrotation Zrotation
										JOINT RightHandThumb1
										{
											OFFSET -12.240601 -7.148026 9.207092
											CHANNELS 3 Xrotation Yrotation Zrotation
											JOINT RightHandThumb2
											{
												OFFSET -4.138618 -2.389435 2.389433
												CHANNELS 3 Xrotation Yrotation Zrotation
												JOINT RightHandThumb3
												{
													OFFSET -2.726974 -1.574417 1.574421
													CHANNELS 3 Xrotation Yrotation Zrotation
													JOINT RightHandThumb4
													{
														OFFSET -3.941010 -2.275345 2.275343
														CHANNELS 3 Xrotation Yrotation Zrotation
														End Site
														{
															OFFSET 0.000000 0.000000 0.000000
														}
													}
												}
											}
										}
										JOINT RightHandIndex1
										{
											OFFSET -24.424698 -1.985657 5.953444
											CHANNELS 3 Xrotation Yrotation Zrotation
											JOINT RightHandIndex2
											{
												OFFSET -6.426697 0.000000 0.000000
												CHANNELS 3 Xrotation Yrotation Zrotation
												JOINT RightHandIndex3
												{
													OFFSET -5.337898 0.000000 0.000000
													CHANNELS 3 Xrotation Yrotation Zrotation
													JOINT RightHandIndex4
													{
														OFFSET -4.409401 0.000000 0.000000
														CHANNELS 3 Xrotation Yrotation Zrotation
														End Site
														{
															OFFSET 0.000000 0.000000 0.000000
														}
													}
												}
											}
										}
										JOINT RightHandMiddle1
										{
											OFFSET -23.810097 0.000000 0.000000
											CHANNELS 3 Xrotation Yrotation Zrotation
											JOINT RightHandMiddle2
											{
												OFFSET -7.176498 0.000000 0.000000
												CHANNELS 3 Xrotation Yrotation Zrotation
												JOINT RightHandMiddle3
												{
													OFFSET -6.774902 0.000000 0.000000
													CHANNELS 3 Xrotation Yrotation Zrotation
													JOINT RightHandMiddle4
													{
														OFFSET -5.403328 0.000000 0.000000
														CHANNELS 3 Xrotation Yrotation Zrotation
														End Site
														{
															OFFSET 0.000000 0.000000 0.000000
														}
													}
												}
											}
										}
										JOINT RightHandRing1
										{
											OFFSET -22.908302 -0.839325 -6.020576
											CHANNELS 3 Xrotation Yrotation Zrotation
											JOINT RightHandRing2
											{
												OFFSET -6.337502 0.000000 0.000000
												CHANNELS 3 Xrotation Yrotation Zrotation
												JOINT RightHandRing3
												{
													OFFSET -5.779297 0.000000 0.000000
													CHANNELS 3 Xrotation Yrotation Zrotation
													JOINT RightHandRing4
													{
														OFFSET -4.965698 0.000000 0.000000
														CHANNELS 3 Xrotation Yrotation Zrotation
														End Site
														{
															OFFSET 0.000000 0.000000 0.000000
														}
													}
												}
											}
										}
										JOINT RightHandPinky1
										{
											OFFSET -20.037003 -1.530334 -10.950259
											CHANNELS 3 Xrotation Yrotation Zrotation
											JOINT RightHandPinky2
											{
												OFFSET -5.254700 0.000000 0.000000
												CHANNELS 3 Xrotation Yrotation Zrotation
												JOINT RightHandPinky3
												{
													OFFSET -4.810204 0.000000 0.000000
													CHANNELS 3 Xrotation Yrotation Zrotation
													JOINT RightHandPinky4
													{
														OFFSET -3.647202 0.000000 0.000000
														CHANNELS 3 Xrotation Yrotation Zrotation
														End Site
														{
															OFFSET 0.000000 0.000000 0.000000
														}
													}
												}
											}
										}
									}
								}
							}
						}
					}
				}
			}
		}
	}
	JOINT LeftUpLeg
	{
		OFFSET 15.427100 -6.655098 0.678600
		CHANNELS 3 Xrotation Yrotation Zrotation
		JOINT LeftLeg
		{
			OFFSET 4.081073 -39.591068 13.024000
			CHANNELS 3 Xrotation Yrotation Zrotation
			JOINT LeftFoot
			{
				OFFSET -4.081074 -37.707932 -15.979700
				CHANNELS 3 Xrotation Yrotation Zrotation
				JOINT LeftToeBase
				{
					OFFSET 5.346399 -15.068900 20.645000
					CHANNELS 3 Xrotation Yrotation Zrotation
					JOINT LeftToe_End
					{
						OFFSET 2.754700 0.931300 11.300900
						CHANNELS 3 Xrotation Yrotation Zrotation
						End Site
						{
							OFFSET 0.000000 0.000000 0.000000
						}
					}
				}
			}
		}
	}
	JOINT RightUpLeg
	{
		OFFSET -15.569500 -6.655098 0.678600
		CHANNELS 3 Xrotation Yrotation Zrotation
		JOINT RightLeg
		{
			OFFSET -4.081825 -39.591045 13.023800
			CHANNELS 3 Xrotation Yrotation Zrotation
			JOINT RightFoot
			{
				OFFSET 4.081824 -37.707954 -15.979600
				CHANNELS 3 Xrotation Yrotation Zrotation
				JOINT RightToeBase
				{
					OFFSET -5.346400 -15.068900 20.645000
					CHANNELS 3 Xrotation Yrotation Zrotation
					JOINT RightToe_End
					{
						OFFSET -2.754700 0.931300 11.300900
						CHANNELS 3 Xrotation Yrotation Zrotation
						End Site
						{
							OFFSET 0.000000 0.000000 0.000000
						}
					}
				}
			}
		}
	}
}
MOTION
Frames: 4
Frame Time: 0.016667
0.525855 79.673141 -0.006280 12.404535 -56.082151 11.513022 11.722733 1.503850 -2.939402 -7.573169 6.733731 -2.520091 0.000000 0.000000 0.000000 0.220137 5.397597 -4.595491 -12.580309 9.083970 1.899284 -4.773442 33.430754 5.660079 -0.000000 -0.000000 0.000000 -31.809697 13.410711 5.488763 0.000000 0.000000 0.000000 38.429527 -24.730797 -35.179186 -0.000019 -63.060869 -0.000019 -30.857579 -7.137400 36.647858 -1.721971 5.255658 -13.188779 20.563155 52.534660 0.189429 -40.349725 66.790118 65.646656 -0.000002 0.000000 0.000000 12.956295 -4.115571 -90.449709 8.952188 4.964078 -122.050973 5.912114 5.850745 -90.598962 0.000001 0.000000 0.000000 9.405887 8.323697 -88.069067 9.453597 4.613524 -128.051731 6.049461 5.847717 -91.946552 -0.000000 -0.000000 -0.000002 6.580872 8.180118 -91.968094 8.173855 5.371733 -113.426021 3.188209 5.211858 -62.887710 0.000001 -0.000002 0.000000 -3.227070 20.111987 -75.571699 5.936852 5.850434 -90.841407 5.609436 5.846078 -87.629107 0.000002 0.000000 -0.000000 0.882300 7.689503 10.201999 0.000000 0.000000 0.000000 7.550367 1.963480 57.853731 0.000061 75.685162 -0.000061 35.320858 10.055747 5.680935 -3.341847 -3.276463 13.774179 20.875254 -54.536059 -0.016286 -51.849728 -71.995030 -77.305317 -0.000001 0.000001 0.000002 11.836813 5.289193 89.687426 7.123243 -3.951842 122.001659 4.705692 -4.656916 90.597801 -0.000001 -0.000002 -0.000003 8.171038 -7.103211 87.309024 7.522352 -3.673024 127.998483 4.814876 -4.654518 91.942809 0.000001 -0.000001 -0.000001 4.801464 -6.930768 91.181318 6.503984 -4.276069 113.385969 2.539797 -4.148959 62.932229 -0.000001 0.000000 -0.000000 -4.344485 -18.765251 74.899199 4.725352 -4.656669 90.839802 4.465090 -4.653214 87.633636 0.000002 -0.000001 0.000002 -44.706085 6.417959 28.914721 39.649105 -10.313694 -10.062828 -3.027412 -0.729994 -5.621459 0.612356 0.000000 0.000011 0.000000 0.000001 0.000000 -28.224614 -9.872043 -22.186703 48.764511 9.323560 -0.835066 -34.703563 -5.340053 12.103242 9.011171 0.000032 -0.000002 -0.000000 -0.000002 -0.000000 
0.501796 79.686882 -0.013197 12.358504 -56.081259 11.455160 11.722785 1.503534 -2.941162 -7.573176 6.733747 -2.520091 0.000000 0.000000 0.000000 0.220137 5.397593 -4.595489 -12.569275 9.762733 2.145933 -4.477372 32.927874 5.264197 0.000000 -0.000000 0.000000 -31.777814 12.952638 5.310878 0.000000 0.000000 0.000000 38.682906 -24.912982 -34.934560 -0.000059 -62.511626 -0.000061 -31.157523 -7.391299 36.475259 -1.721942 5.255659 -13.188778 20.563150 52.534660 0.189422 -40.349739 66.790125 65.646690 -0.000001 0.000002 0.000000 12.956324 -4.115587 -90.449723 8.952188 4.964050 -122.051000 5.912112 5.850735 -90.598935 -0.000000 0.000000 0.000000 9.405911 8.323702 -88.069074 9.453607 4.613522 -128.051717 6.049459 5.847708 -91.946538 -0.000001 0.000001 -0.000001 6.580878 8.180099 -91.968115 8.173825 5.371732 -113.426008 3.188194 5.211865 -62.887731 0.000000 0.000003 -0.000000 -3.227052 20.111991 -75.571692 5.936834 5.850449 -90.841400 5.609439 5.846077 -87.629094 0.000002 0.000002 -0.000002 1.018008 7.684535 10.077996 0.000000 0.000000 0.000000 7.270307 2.953155 57.421093 -0.000035 75.186149 0.000054 34.670949 9.864181 5.516733 -3.341823 -3.276473 13.774149 20.875256 -54.536048 -0.016283 -51.849619 -71.995030 -77.305174 0.000000 0.000003 0.000002 11.836823 5.289178 89.687405 7.123235 -3.951863 122.001631 4.705713 -4.656916 90.597808 0.000002 -0.000003 -0.000000 8.171043 -7.103226 87.309010 7.522347 -3.673043 127.998455 4.814886 -4.654502 91.942822 0.000001 -0.000003 -0.000000 4.801483 -6.930783 91.181325 6.503985 -4.276075 113.385983 2.539808 -4.148956 62.932216 0.000002 0.000003 -0.000000 -4.344466 -18.765267 74.899219 4.725355 -4.656674 90.839781 4.465084 -4.653208 87.633636 0.000002 0.000001 0.000000 -44.656450 6.409549 28.962246 39.622146 -10.268700 -10.073547 -3.021935 -0.796563 -5.643768 0.612372 -0.000004 -0.000008 0.000000 0.000000 -0.000000 -28.159857 -9.904321 -22.146861 48.734349 9.320807 -0.836094 -34.713101 -5.340423 12.084952 9.011149 -0.000012 0.000000 0.000000 -0.000002 -0.000000 
0.469440 79.685783 -0.019110 12.319857 -56.027127 11.405676 11.722848 1.504075 -2.943759 -7.573173 6.733749 -2.520093 0.000000 0.000000 0.000000 0.220139 5.397582 -4.595491 -12.608603 10.491365 2.412570 -4.224775 32.405757 4.896691 0.000000 -0.000000 0.000000 -31.754075 12.465674 5.128835 0.000000 0.000000 0.000000 39.012306 -25.126446 -34.726987 0.000008 -61.838777 0.000016 -31.459616 -7.671484 36.216173 -1.721946 5.255640 -13.188792 20.563147 52.534646 0.189441 -40.349728 66.790111 65.646676 -0.000001 0.000002 -0.000001 12.956304 -4.115577 -90.449709 8.952191 4.964082 -122.050973 5.912111 5.850738 -90.598955 0.000003 0.000001 -0.000003 9.405912 8.323700 -88.069074 9.453594 4.613526 -128.051717 6.049458 5.847708 -91.946531 -0.000003 -0.000003 -0.000004 6.580886 8.180118 -91.968108 8.173838 5.371741 -113.426015 3.188191 5.211870 -62.887717 0.000000 0.000001 -0.000000 -3.227048 20.111984 -75.571699 5.936845 5.850430 -90.841407 5.609429 5.846066 -87.629128 0.000002 -0.000001 0.000001 1.163712 7.679724 9.947279 0.000000 0.000000 0.000000 6.979112 3.931145 56.951743 0.000032 74.671726 -0.000016 33.974553 9.691011 5.366335 -3.341827 -3.276471 13.774154 20.875266 -54.536035 -0.016283 -51.849633 -71.995043 -77.305188 -0.000001 -0.000001 -0.000002 11.836830 5.289174 89.687419 7.123237 -3.951868 122.001631 4.705716 -4.656919 90.597808 0.000002 0.000000 -0.000001 8.171022 -7.103221 87.309017 7.522364 -3.673055 127.998455 4.814890 -4.654506 91.942809 0.000001 -0.000003 -0.000001 4.801482 -6.930770 91.181332 6.503993 -4.276069 113.385990 2.539782 -4.148958 62.932202 -0.000000 -0.000001 -0.000001 -4.344465 -18.765255 74.899212 4.725348 -4.656676 90.839795 4.465091 -4.653210 87.633663 0.000004 0.000002 0.000000 -44.655982 6.393653 28.995884 39.609671 -10.224846 -10.082815 -3.000684 -0.905854 -5.658937 0.612372 0.000007 -0.000004 -0.000000 -0.000002 0.000000 -28.085275 -9.938029 -22.110822 48.730367 9.320826 -0.835639 -34.763423 -5.391892 12.053014 9.011156 0.000020 0.000010 -0.000000 -0.000001 0.000000 
0.441283 79.697182 -0.021337 12.286467 -56.009672 11.354065 11.722899 1.504083 -2.945356 -7.573172 6.733752 -2.520093 0.000000 0.000000 0.000000 0.220140 5.397592 -4.595490 -12.694470 11.267571 2.689842 -3.974851 31.886882 4.534251 0.000000 -0.000000 0.000000 -31.738349 11.953781 4.944349 0.000000 0.000000 0.000000 39.461578 -25.312635 -34.536869 -0.000062 -61.081009 -0.000067 -31.790023 -7.989008 35.931778 -1.721950 5.255651 -13.188780 20.563155 52.534649 0.189401 -40.349732 66.790118 65.646690 0.000002 0.000000 -0.000001 12.956313 -4.115574 -90.449729 8.952190 4.964080 -122.050973 5.912120 5.850749 -90.598942 0.000001 0.000003 0.000001 9.405887 8.323703 -88.069067 9.453623 4.613534 -128.051717 6.049455 5.847710 -91.946538 -0.000000 0.000005 0.000004 6.580886 8.180099 -91.968115 8.173833 5.371725 -113.426015 3.188194 5.211871 -62.887717 -0.000000 0.000003 0.000000 -3.227045 20.111991 -75.571713 5.936852 5.850439 -90.841400 5.609415 5.846091 -87.629094 0.000002 -0.000000 0.000000 1.316084 7.674880 9.811793 0.000000 0.000000 0.000000 6.684427 4.902617 56.464300 0.000036 74.142960 -0.000035 33.251103 9.531744 5.218444 -3.341845 -3.276464 13.774169 20.875251 -54.536045 -0.016279 -51.849708 -71.995036 -77.305269 -0.000001 0.000000 0.000003 11.836813 5.289186 89.687419 7.123238 -3.951870 122.001631 4.705724 -4.656910 90.597815 0.000001 -0.000001 -0.000001 8.171032 -7.103215 87.309024 7.522355 -3.673043 127.998455 4.814902 -4.654505 91.942816 -0.000003 -0.000003 0.000001 4.801466 -6.930780 91.181332 6.503997 -4.276068 113.386017 2.539801 -4.148940 62.932209 -0.000001 0.000002 -0.000002 -4.344474 -18.765253 74.899226 4.725373 -4.656683 90.839802 4.465082 -4.653193 87.633636 0.000002 0.000002 -0.000000 -44.625389 6.382193 29.042477 39.588149 -10.179797 -10.093132 -2.993869 -0.986751 -5.677464 0.612368 0.000019 0.000003 -0.000000 -0.000001 0.000000 -28.016632 -9.974450 -22.067865 48.699471 9.318822 -0.836357 -34.782783 -5.407402 12.032607 9.011158 0.000029 0.000002 0.000000 -0.000000 -0.000000 
